<?xml version="1.0" encoding="UTF-8"?>
<svg version="1.1" xmlns="http://www.w3.org/2000/svg" width="512" height="512">
<path d="M0 0 C3.93495984 2.41560441 7.37895491 5.36191171 9.5 9.515625 C11.36105424 11.71972443 11.36105424 11.71972443 14.85546875 11.265625 C16.426226 11.04325824 17.99511722 10.80752357 19.5625 10.5625 C44.98875731 7.41510297 73.60982825 7.04171024 98.67480469 12.8449707 C105.70647103 14.45621271 112.57845508 14.62107919 119.77624512 14.71786499 C132.16601403 14.90757049 144.29230187 15.35019939 156.375 18.3125 C157.13538574 18.49377441 157.89577148 18.67504883 158.67919922 18.86181641 C177.44803136 23.49604901 195.87589579 31.67983899 211.375 43.3125 C217.53322556 40.73191024 222.38386641 35.53428977 226.375 30.3125 C226.98483885 27.59104226 226.84657858 25.60660285 226.52734375 22.8515625 C226.17675139 17.00835643 228.6920258 11.52482617 232.17578125 6.9453125 C238.52368394 0.21530305 243.55015353 -1.82053829 252.6875 -2.1875 C260.60616951 -2.00753024 266.23255075 -0.31875338 272.2109375 4.921875 C278.38229052 11.48458211 279.97251634 18.48213847 279.7265625 27.34765625 C278.88640971 34.43294481 275.50606354 40.40452618 270.375 45.3125 C264.78859154 49.23894709 260.30358562 50.46521329 253.5 50.375 C247.79531166 50.52512338 245.10222159 51.82181735 241.12060547 55.66381836 C238.77306197 58.14256683 236.54567082 60.67668543 234.375 63.3125 C234.70371094 63.75078125 235.03242188 64.1890625 235.37109375 64.640625 C236.41047105 66.0264614 237.44652338 67.41479373 238.48046875 68.8046875 C239.77255207 70.51503284 241.08889783 72.20725194 242.42578125 73.8828125 C250.72273947 84.46401321 257.26568591 96.09907561 262.4375 108.5 C264.79408538 113.81895965 267.39533198 116.40095089 272.13671875 119.66015625 C281.63547684 126.67232845 285.89245613 138.47260139 288.02416992 149.67797852 C288.5885144 153.91586385 288.32354716 158.05485631 288.125 162.3125 C287.91823484 171.33752001 289.57192329 178.28516609 292.71875 186.66015625 C313.81848181 243.42673796 304.66350079 312.30630413 280.375 366.3125 C271.75375453 384.9053065 260.74855735 402.74866833 247.375 418.3125 C246.5002292 419.36890416 245.62662243 420.42627284 244.75390625 421.484375 C234.10745388 434.27887493 222.55926974 446.11945909 209.375 456.3125 C208.44171875 457.07433594 207.5084375 457.83617187 206.546875 458.62109375 C192.16409068 470.14576068 176.1246877 479.65912788 159.375 487.3125 C158.59753418 487.6729541 157.82006836 488.0334082 157.01904297 488.40478516 C139.58999908 496.42084747 121.759103 502.13082614 103 506.125 C102.08694092 506.3199707 101.17388184 506.51494141 100.2331543 506.71582031 C84.41645181 509.89288888 68.84198658 510.68938929 52.75 510.625 C51.77944672 510.62284485 50.80889343 510.6206897 49.80892944 510.61846924 C35.48190101 510.56743771 21.45143087 510.22459434 7.375 507.3125 C5.90836914 507.01448486 5.90836914 507.01448486 4.41210938 506.71044922 C-53.19555999 494.65617985 -107.29039284 464.35768166 -143.625 417.3125 C-144.78515625 415.87777344 -144.78515625 415.87777344 -145.96875 414.4140625 C-186.32069307 363.71874162 -204.35010604 297.18452568 -197.60693359 232.94628906 C-193.85877075 200.98568605 -184.70464568 170.72840037 -169.625 142.3125 C-169.25681152 141.60416016 -168.88862305 140.89582031 -168.50927734 140.16601562 C-159.57173606 123.02469651 -148.40757192 107.77596058 -135.625 93.3125 C-134.84382813 92.42046875 -134.06265625 91.5284375 -133.2578125 90.609375 C-125.0104459 81.30611718 -116.34948218 73.05864913 -106.625 65.3125 C-105.86960937 64.67828125 -105.11421875 64.0440625 -104.3359375 63.390625 C-88.33675229 50.08546067 -70.0405156 39.68222921 -51.3125 30.75 C-50.61310303 30.41516602 -49.91370605 30.08033203 -49.19311523 29.73535156 C-45.69798915 28.1108262 -42.45102632 26.85273196 -38.625 26.3125 C-38.7075 25.178125 -38.79 24.04375 -38.875 22.875 C-38.86347587 16.36386698 -35.98924978 11.39899967 -32.5 6.0625 C-23.90282051 -2.16088908 -11.18192555 -5.16740499 0 0 Z " fill="#7AE600" transform="translate(203.625,1.6875)"/>
<path d="M0 0 C0.20625 1.134375 0.4125 2.26875 0.625 3.4375 C2.3125441 9.87981363 5.12485911 14.93955421 10.60546875 18.8671875 C16.07016043 21.88467907 20.13350815 23.18290086 26.375 23 C32.22809276 23.10641987 34.85733459 25.14437065 38.89501953 29.06445312 C41.68663762 31.97336609 44.3697349 34.9438449 47 38 C45.23798145 41.70433898 43.01279372 44.60849607 40.4375 47.8125 C32.71064471 57.69506646 26.77739784 67.90722708 22 79.5 C18.93158649 86.87032925 15.77947066 90.65709887 9 95 C-1.41657896 104.43025163 -5.37273376 118.65756735 -6.3515625 132.22265625 C-7.28740385 152.57945533 -0.00148473 177.04655573 13.38549805 192.61083984 C18.42043123 198.67650254 20.45742763 205.31002425 22.8125 212.75 C23.67075892 215.36113949 24.54529987 217.96658992 25.42578125 220.5703125 C25.64255524 221.21225555 25.85932922 221.85419861 26.08267212 222.51559448 C29.08652808 231.30836176 32.89260671 239.67643153 37 248 C37.38623535 248.79019531 37.7724707 249.58039063 38.17041016 250.39453125 C48.69477705 271.72759096 62.18705455 291.34916423 78.62646484 308.55908203 C79.96661819 309.96498055 81.2901948 311.38662191 82.61328125 312.80859375 C95.00148953 325.74738906 110.34133127 336.33653251 127 343 C127 351.25 127 359.5 127 368 C124.8034375 368.02578125 122.606875 368.0515625 120.34375 368.078125 C118.15564523 368.11681724 115.96775502 368.16188782 113.77978516 368.20751953 C112.28868295 368.23530404 110.79744509 368.25672376 109.30615234 368.27099609 C88.08494774 368.48593064 69.59344714 373.76202658 54 389 C47.89962625 395.94606419 43.14731594 403.29319168 40 412 C39.75488174 412.6613092 39.50976349 413.32261841 39.25721741 414.00396729 C36.82682399 421.18583064 36.5285867 427.90644561 36.48828125 435.4453125 C36.47033005 436.69633759 36.45237885 437.94736267 36.43388367 439.23629761 C36.38918717 442.52742641 36.35673073 445.81836294 36.33044434 449.10968018 C36.30041636 452.48210768 36.25396389 455.85430714 36.20898438 459.2265625 C36.12435408 465.81760201 36.05588485 472.4086574 36 479 C32.37326133 478.07832295 28.74896952 477.14734418 25.125 476.21484375 C24.11179688 475.95747437 23.09859375 475.70010498 22.0546875 475.43493652 C7.05664605 471.56224513 -7.17072656 465.94164702 -21 459 C-21.7425 458.63003906 -22.485 458.26007813 -23.25 457.87890625 C-54.93829621 441.98263924 -84.25641356 419.15307647 -106 391 C-107.16015625 389.56527344 -107.16015625 389.56527344 -108.34375 388.1015625 C-148.69569307 337.40624162 -166.72510604 270.87202568 -159.98193359 206.63378906 C-156.23377075 174.67318605 -147.07964568 144.41590037 -132 116 C-131.63181152 115.29166016 -131.26362305 114.58332031 -130.88427734 113.85351562 C-121.94673606 96.71219651 -110.78257192 81.46346058 -98 67 C-97.21882813 66.10796875 -96.43765625 65.2159375 -95.6328125 64.296875 C-87.3854459 54.99361718 -78.72448218 46.74614913 -69 39 C-68.24460937 38.36578125 -67.48921875 37.7315625 -66.7109375 37.078125 C-51.39147904 24.33823171 -20.85299164 0 0 0 Z " fill="#FB3580" transform="translate(166,28)"/>
<path d="M0 0 C3.93495984 2.41560441 7.37895491 5.36191171 9.5 9.515625 C11.36105424 11.71972443 11.36105424 11.71972443 14.85546875 11.265625 C16.426226 11.04325824 17.99511722 10.80752357 19.5625 10.5625 C46.33314617 7.24868738 75.02652006 7.72465971 101.421875 13.390625 C106.98361071 14.53085161 112.45173112 14.66569326 118.11328125 14.703125 C123.7971883 14.87801445 123.7971883 14.87801445 126.87890625 17.1953125 C128.375 19.3125 128.375 19.3125 128.9375 21.8125 C128.12274706 25.43362417 126.40171277 26.17737704 123.375 28.3125 C120.44255863 29.94822912 117.44042885 31.43618502 114.4375 32.9375 C101.697239 39.48764664 90.73324692 47.36125689 80.375 57.3125 C79.8284375 57.83070312 79.281875 58.34890625 78.71875 58.8828125 C77.15272497 60.45339026 77.15272497 60.45339026 75.5625 63.25 C73.375 66.3125 73.375 66.3125 70.58203125 68.0390625 C66.68051271 70.80481621 64.49330376 73.80545116 61.875 77.75 C61.3994165 78.45503662 60.92383301 79.16007324 60.43383789 79.88647461 C52.09241086 92.53462443 48.02195526 103.98601077 48.125 119.125 C48.11726563 120.24970703 48.10953125 121.37441406 48.1015625 122.53320312 C48.11743491 129.36230813 48.72581467 135.68100934 50.375 142.3125 C49.31925781 141.879375 48.26351562 141.44625 47.17578125 141 C34.91774353 136.27177955 20.39640299 132.78585108 7.5546875 137.53125 C-2.85513916 142.54433606 -9.02296311 149.21603575 -13 160.0625 C-16.15178162 176.44519821 -11.6051341 193.20248518 -2.53808594 206.96191406 C15.20236686 232.75141301 47.40721792 242.48017849 76.375 250.3125 C76.32859375 251.01632813 76.2821875 251.72015625 76.234375 252.4453125 C75.9185945 261.08416477 77.69858968 268.14902904 80.375 276.3125 C80.78241912 277.67243919 81.1872883 279.03314444 81.58984375 280.39453125 C89.03437729 304.87462976 101.31843079 326.3665081 118.375 345.3125 C119.02855469 346.04984375 119.68210937 346.7871875 120.35546875 347.546875 C129.93158428 357.75595339 141.8512074 364.43398511 154.375 370.3125 C154.375 378.2325 154.375 386.1525 154.375 394.3125 C156.99308594 394.25449219 159.61117187 394.19648438 162.30859375 394.13671875 C164.90695177 394.09747925 167.50527403 394.06726039 170.10375977 394.0378418 C171.87930612 394.01303696 173.65475424 393.97918129 175.42993164 393.93530273 C195.61342184 393.4497107 213.74033114 397.58505505 229.3125 411.25 C238.8983742 420.49854138 238.8983742 420.49854138 240.375 424.3125 C239.18749721 428.20549645 237.49200249 430.57144884 234.62890625 433.421875 C233.87955811 434.17210937 233.13020996 434.92234375 232.3581543 435.6953125 C231.55933838 436.47648437 230.76052246 437.25765625 229.9375 438.0625 C229.11999268 438.86945313 228.30248535 439.67640625 227.46020508 440.5078125 C221.68112241 446.16055455 215.80157062 451.40317988 209.375 456.3125 C208.44558594 457.07046875 207.51617187 457.8284375 206.55859375 458.609375 C192.17767412 470.143497 176.12836508 479.65744759 159.375 487.3125 C158.59753418 487.6729541 157.82006836 488.0334082 157.01904297 488.40478516 C139.58999908 496.42084747 121.759103 502.13082614 103 506.125 C102.08694092 506.3199707 101.17388184 506.51494141 100.2331543 506.71582031 C84.41462197 509.89325644 68.84327315 510.68328584 52.75 510.625 C51.30214615 510.62376129 51.30214615 510.62376129 49.82504272 510.62249756 C33.79035714 510.59093158 18.29547179 509.77404142 2.60229492 506.25927734 C1.80635422 506.08133636 1.01041351 505.90339539 0.19035339 505.72006226 C-0.70824654 505.51831894 -0.70824654 505.51831894 -1.625 505.3125 C-1.75290925 497.46966179 -1.83981225 489.62709743 -1.8996582 481.78344727 C-1.92178631 479.12083202 -1.95862007 476.45960367 -2.00219727 473.79711914 C-2.38077309 450.05373425 -0.14011678 431.6257312 16.9375 413.625 C33.22981725 398.1681862 51.95617891 393.7471673 73.6875 394.125 C75.2180856 394.14009325 76.74868581 394.15377335 78.27929688 394.16601562 C81.97853573 394.19602568 85.67568293 394.25479835 89.375 394.3125 C89.375 386.0625 89.375 377.8125 89.375 369.3125 C84.92 367.8275 84.92 367.8275 80.375 366.3125 C77.88405744 365.03917473 75.5542151 363.77547152 73.1875 362.3125 C72.54659424 361.91861084 71.90568848 361.52472168 71.24536133 361.11889648 C50.89001365 348.33960869 34.16004574 330.884507 20.375 311.3125 C19.70331787 310.36793945 19.70331787 310.36793945 19.01806641 309.40429688 C3.97904327 288.09761381 -7.02478747 264.74955391 -15.58203125 240.1875 C-15.92097412 239.21498291 -16.25991699 238.24246582 -16.60913086 237.24047852 C-17.29850177 235.25354622 -17.98139703 233.26435764 -18.65844727 231.27319336 C-18.99545654 230.30518799 -19.33246582 229.33718262 -19.6796875 228.33984375 C-19.97472168 227.47866943 -20.26975586 226.61749512 -20.57373047 225.73022461 C-22.0930043 222.23617707 -24.35615066 219.57932709 -26.765625 216.66015625 C-34.18971108 207.28646773 -38.15715233 196.59807063 -41.625 185.3125 C-41.96789062 184.2090625 -42.31078125 183.105625 -42.6640625 181.96875 C-47.43109461 164.32627602 -45.18315539 145.6017125 -36.65625 129.5234375 C-33.22175967 124.09430086 -28.96149067 118.91914858 -23.0859375 116.08984375 C-19.45068795 113.46438574 -18.48422377 110.1510165 -16.875 106.0625 C-11.43823466 93.12258287 -4.47304246 81.94504109 4.30859375 71.01953125 C5.99688063 68.80784352 7.26816174 66.84673623 8.375 64.3125 C1.45103382 55.6033142 1.45103382 55.6033142 -7.9609375 50.4375 C-10.11157731 50.39584112 -12.26352982 50.39844859 -14.4140625 50.4453125 C-20.96925888 50.17417299 -27.05600479 46.91142526 -31.63671875 42.27734375 C-36.85437879 35.51838946 -39.03837895 29.09496131 -38.90625 20.45703125 C-38.04175865 13.86528472 -34.34991274 7.83198175 -29.625 3.3125 C-21.28887871 -2.79419351 -9.54684457 -4.41179939 0 0 Z " fill="#0FD18F" transform="translate(203.625,1.6875)"/>
<path d="M0 0 C6.01555658 2.6786252 10.08391899 7.21284824 12.6328125 13.296875 C13.36914941 19.93015463 12.31811476 26.51855387 11.12890625 33.03515625 C10.9701149 33.94294327 10.81132355 34.85073029 10.64772034 35.786026 C10.13043922 38.72872348 9.60072187 41.66901806 9.0703125 44.609375 C8.70848076 46.6498131 8.34715806 48.69034153 7.98632812 50.73095703 C4.69151679 69.28199881 1.20989206 87.79836035 -2.3671875 106.296875 C-1.27011475 106.27633057 -0.17304199 106.25578613 0.95727539 106.23461914 C7.69088659 106.34867234 13.00083459 109.99389433 17.9765625 114.34765625 C25.36309103 122.10626737 28.05253708 129.60929423 27.92236328 140.22070312 C27.45897751 148.95789537 25.46284511 157.59858605 23.8203125 166.171875 C23.45924047 168.1052737 23.09920811 170.03886686 22.74023438 171.97265625 C21.88126466 176.58249395 21.0017416 181.18806352 20.11264038 185.79217529 C19.66401402 188.13400316 19.22817659 190.47781809 18.79614258 192.82275391 C18.54408888 194.15793547 18.2917508 195.49306339 18.0390625 196.828125 C17.72485352 198.51905273 17.72485352 198.51905273 17.40429688 200.24414062 C15.70081392 206.98475799 12.50966812 212.42509383 6.6328125 216.234375 C4.3337502 217.48840898 1.99556819 218.60222123 -0.3671875 219.734375 C-2.98082282 221.09564339 -4.99840731 222.49523194 -7.3046875 224.296875 C-9.89217694 226.30715525 -12.26309073 227.82525007 -15.3046875 229.046875 C-18.46568321 229.94461422 -18.46568321 229.94461422 -19.3671875 232.296875 C-19.52345326 234.77520159 -19.62531948 237.22998831 -19.68359375 239.7109375 C-19.7147654 240.80539688 -19.7147654 240.80539688 -19.74656677 241.92196655 C-19.81200667 244.25517263 -19.87092118 246.58849221 -19.9296875 248.921875 C-19.97287803 250.50261595 -20.01649249 252.08334539 -20.06054688 253.6640625 C-20.16768231 257.54155004 -20.26896532 261.41915185 -20.3671875 265.296875 C-25.26491733 263.76255333 -29.21456162 261.687973 -33.4296875 258.796875 C-34.08380615 258.35327637 -34.7379248 257.90967773 -35.41186523 257.45263672 C-56.65281221 242.90136729 -76.59287323 225.72108041 -92.3671875 205.296875 C-93.52734375 203.86214844 -93.52734375 203.86214844 -94.7109375 202.3984375 C-108.30832124 185.31564843 -127.76462502 159.84566815 -130.7109375 137.71484375 C-130.25581749 134.51348819 -129.14904984 133.64055104 -126.6796875 131.609375 C-125.99519531 131.02800781 -125.31070313 130.44664062 -124.60546875 129.84765625 C-118.65639628 125.72587306 -112.94911897 125.9516278 -105.9609375 125.90625 C-100.85328999 125.75302057 -98.06978631 125.15856986 -94.3671875 121.296875 C-92.09700845 116.7565169 -92.86805539 111.16813145 -94.13821411 106.40628052 C-95.25159951 103.22041185 -96.45985138 100.08982382 -97.71484375 96.95703125 C-98.16435898 95.79546005 -98.61387421 94.63388885 -99.07701111 93.43711853 C-100.27078152 90.36050162 -101.47856518 87.28992043 -102.69396973 84.22180176 C-103.90271589 81.16193114 -105.09419102 78.0953657 -106.28710938 75.02929688 C-108.12999956 70.29638261 -109.97454662 65.56412253 -111.82080078 60.83251953 C-112.25096497 59.72821594 -112.68112915 58.62391235 -113.12432861 57.48614502 C-113.92374616 55.43477906 -114.72483858 53.38406459 -115.52801514 51.33416748 C-116.54780007 48.720757 -117.55191335 46.10193136 -118.55078125 43.48046875 C-118.98850609 42.37095604 -118.98850609 42.37095604 -119.43507385 41.23902893 C-121.87869786 34.73974203 -122.19248961 28.78589549 -119.55078125 22.2890625 C-116.6497015 17.40605698 -111.61626039 13.42031848 -106.3671875 11.296875 C-99.16519671 10.10037813 -93.87272716 11.45666694 -87.65625 15.10546875 C-81.31441502 21.17674763 -78.57616351 30.4314013 -75.56640625 38.46875 C-75.12633743 39.6269928 -74.68626862 40.7852356 -74.23286438 41.97857666 C-72.83366303 45.66559458 -71.44398245 49.35611443 -70.0546875 53.046875 C-69.13410072 55.47810595 -68.21288188 57.90909766 -67.29101562 60.33984375 C-64.23202523 68.41105634 -61.17968345 76.48477965 -58.13726807 84.56225586 C-57.01442694 87.5423947 -55.88839639 90.52130996 -54.76171875 93.5 C-54.42967941 94.38443787 -54.09764008 95.26887573 -53.75553894 96.18011475 C-52.54480957 100.02433057 -52.54480957 100.02433057 -50.3671875 103.296875 C-48.70101635 103.33751332 -47.03330655 103.339596 -45.3671875 103.296875 C-43.79136351 100.42766914 -42.96374782 97.90529868 -42.40917969 94.68481445 C-42.16784302 93.31176651 -42.16784302 93.31176651 -41.92163086 91.91098022 C-41.67038452 90.42557236 -41.67038452 90.42557236 -41.4140625 88.91015625 C-41.23335205 87.87218903 -41.0526416 86.8342218 -40.86645508 85.76480103 C-40.47921251 83.53685135 -40.09474328 81.3084182 -39.71276855 79.07955933 C-39.11536088 75.59873211 -38.50876268 72.11962445 -37.89941406 68.64086914 C-36.24818359 59.20344617 -34.6087231 49.76425322 -33.02020264 40.3160553 C-32.51134789 37.30298094 -31.99103087 34.29196565 -31.46789551 31.28134155 C-31.12797998 29.29736714 -30.80540039 27.31044677 -30.48339844 25.32348633 C-28.88939703 16.18015134 -26.78442833 7.70439149 -19.3046875 1.671875 C-13.22938274 -1.8923038 -6.6768882 -1.98323412 0 0 Z " fill="#0FD18F" transform="translate(152.3671875,213.703125)"/>
<path d="M0 0 C9 2 9 2 12.2734375 2.8515625 C29.21722428 7.0768393 44.49993771 5.11843707 61.14672852 0.45898438 C63 0 63 0 65 0 C65 7.92 65 15.84 65 24 C67.61808594 23.94199219 70.23617187 23.88398438 72.93359375 23.82421875 C75.53195177 23.78497925 78.13027403 23.75476039 80.72875977 23.7253418 C82.50430612 23.70053696 84.27975424 23.66668129 86.05493164 23.62280273 C106.23842184 23.1372107 124.36533114 27.27255505 139.9375 40.9375 C149.5233742 50.18604138 149.5233742 50.18604138 151 54 C149.81249721 57.89299645 148.11700249 60.25894884 145.25390625 63.109375 C144.50455811 63.85960937 143.75520996 64.60984375 142.9831543 65.3828125 C142.18433838 66.16398437 141.38552246 66.94515625 140.5625 67.75 C139.74499268 68.55695313 138.92748535 69.36390625 138.08520508 70.1953125 C132.30612241 75.84805455 126.42657062 81.09067988 120 86 C119.07058594 86.75796875 118.14117187 87.5159375 117.18359375 88.296875 C102.80267412 99.830997 86.75336508 109.34494759 70 117 C69.22253418 117.3604541 68.44506836 117.7209082 67.64404297 118.09228516 C50.21499908 126.10834747 32.384103 131.81832614 13.625 135.8125 C12.25541138 136.10495605 12.25541138 136.10495605 10.8581543 136.40332031 C-4.96037803 139.58075644 -20.53172685 140.37078584 -36.625 140.3125 C-38.07285385 140.31126129 -38.07285385 140.31126129 -39.54995728 140.30999756 C-55.58464286 140.27843158 -71.07952821 139.46154142 -86.77270508 135.94677734 C-87.56864578 135.76883636 -88.36458649 135.59089539 -89.18464661 135.40756226 C-89.78371323 135.27306671 -90.38277985 135.13857117 -91 135 C-91.12790925 127.15716179 -91.21481225 119.31459743 -91.2746582 111.47094727 C-91.29678631 108.80833202 -91.33362007 106.14710367 -91.37719727 103.48461914 C-91.75577309 79.74123425 -89.51511678 61.3132312 -72.4375 43.3125 C-56.14518275 27.8556862 -37.41882109 23.4346673 -15.6875 23.8125 C-14.1569144 23.82759325 -12.62631419 23.84127335 -11.09570312 23.85351562 C-7.39646427 23.88352568 -3.69931707 23.94229835 0 24 C0 16.08 0 8.16 0 0 Z " fill="#0ED18F" transform="translate(293,372)"/>
<path d="M0 0 C0.20625 1.134375 0.4125 2.26875 0.625 3.4375 C2.3125441 9.87981363 5.12485911 14.93955421 10.60546875 18.8671875 C16.07693969 21.88842245 20.37083119 23.22046437 26.625 23.25 C32.4059233 23.38249402 34.75740219 24.97308542 38.8125 29.0625 C40.24015297 30.68080932 41.64779511 32.31813794 43 34 C39.40813029 36.00053503 35.60670644 37.09026841 31.6875 38.25 C23.5962424 40.72337862 15.76602646 43.64029867 8 47 C6.98486328 47.43868408 6.98486328 47.43868408 5.94921875 47.88623047 C-44.42777625 69.95537322 -81.2322317 112.09831048 -101.27050781 162.70214844 C-105.58063151 173.87222877 -108.43740083 185.31299469 -111 197 C-111.556875 197.01417969 -112.11375 197.02835938 -112.6875 197.04296875 C-120.20179255 197.51261203 -125.13616113 200.06079695 -130.375 205.4375 C-133.49743027 210.36133236 -134.76916094 215.21031585 -134 221 C-132.76876488 225.32237068 -131.16385943 229.49044537 -129.5625 233.6875 C-129.08396563 234.9713394 -128.60637401 236.25553053 -128.12963867 237.54003906 C-125.39049408 244.87865501 -122.54615499 252.17401644 -119.65675354 259.45466614 C-118.09047038 263.40316421 -116.53498369 267.35589467 -114.97848511 271.30825806 C-113.82860155 274.20937632 -112.65903995 277.10202948 -111.48852539 279.99487305 C-110.76885248 281.81395766 -110.04998534 283.63336132 -109.33203125 285.453125 C-108.99504211 286.26882462 -108.65805298 287.08452423 -108.31085205 287.92494202 C-106.12014529 293.55484732 -105.0410286 298.95684953 -106 305 C-107.69827826 308.11490197 -109.78033344 310.39016672 -113 312 C-116.66624657 312.16732363 -120.32638364 312.29645449 -123.99609375 312.34179688 C-130.35123182 312.56838969 -135.96698871 313.98966456 -140.60009766 318.58813477 C-141.79624197 320.00811285 -142.90797898 321.49847109 -144 323 C-168.16509769 286.75235347 -164.25919796 223.04187628 -156.25390625 182.7421875 C-151.28429727 159.23102022 -143.24856946 137.19666707 -132 116 C-131.63181152 115.29166016 -131.26362305 114.58332031 -130.88427734 113.85351562 C-121.94673606 96.71219651 -110.78257192 81.46346058 -98 67 C-97.21882813 66.10796875 -96.43765625 65.2159375 -95.6328125 64.296875 C-87.3854459 54.99361718 -78.72448218 46.74614913 -69 39 C-68.24460937 38.36578125 -67.48921875 37.7315625 -66.7109375 37.078125 C-51.39147904 24.33823171 -20.85299164 0 0 0 Z " fill="#E31E7E" transform="translate(166,28)"/>
<path d="M0 0 C2.29496455 2.29496455 2.6778491 3.69285687 3.5859375 6.77734375 C4.01966675 8.24602905 4.01966675 8.24602905 4.4621582 9.74438477 C4.91401489 11.32497681 4.91401489 11.32497681 5.375 12.9375 C5.84135864 14.55773071 5.84135864 14.55773071 6.31713867 16.21069336 C24.50627356 80.53395928 17.29462136 150.11024311 -15.00390625 208.84765625 C-22.23448693 221.53344095 -30.44229116 233.93783699 -40 245 C-40.598125 245.70640625 -41.19625 246.4128125 -41.8125 247.140625 C-43.19770085 248.76951859 -44.59693159 250.38647133 -46 252 C-49.09146784 249.00514053 -51.91291833 245.91735351 -54.6875 242.625 C-65.53729965 230.39357793 -82.50564039 222.68723861 -98.7890625 221.58520508 C-103.98280823 221.34472487 -109.17653155 221.29109084 -114.375 221.25 C-116.1901317 221.22177039 -118.00523769 221.19183352 -119.8203125 221.16015625 C-124.21378403 221.08399205 -128.60557477 221.04270578 -133 221 C-133 212.75 -133 204.5 -133 196 C-130.6075 194.845 -128.215 193.69 -125.75 192.5 C-102.64745282 181.0460719 -84.2903755 163.52189266 -69 143 C-68.58008789 142.44618652 -68.16017578 141.89237305 -67.72753906 141.32177734 C-50.7128373 118.82810253 -37.43408564 92.50871292 -29.00024414 65.62133789 C-24.04549819 49.85008041 -24.04549819 49.85008041 -18.0703125 43.41796875 C-7.69806172 31.30396265 -3.89404194 15.0644446 0 0 Z " fill="#E31E7E" transform="translate(491,175)"/>
<path d="M0 0 C0.92409668 0.00499512 1.84819336 0.00999023 2.80029297 0.01513672 C21.86507374 0.49431738 38.64746034 10.5168192 51.625 24.0625 C67.22291828 43.10603919 74.47758764 69.23300298 81 92.5 C81.27666504 93.46929443 81.55333008 94.43858887 81.83837891 95.43725586 C82.10956543 96.40284424 82.38075195 97.36843262 82.66015625 98.36328125 C82.90515869 99.23251221 83.15016113 100.10174316 83.40258789 100.99731445 C84.48062758 105.51345047 85.30283869 110.09078241 83.015625 114.3203125 C80.73549099 117.23381707 78.40075432 119.13094338 75 120.5 C66.78686971 120.2401969 59.08465876 117.75808801 51.25 115.4375 C50.22404724 115.13596512 50.22404724 115.13596512 49.17736816 114.82833862 C17.73983714 105.55713459 -12.60674357 94.68489602 -29.49609375 64.62890625 C-35.39758766 52.3507332 -38.40153732 37.65986225 -34.9375 24.25 C-31.03588237 13.21658829 -23.9465078 7.08501702 -13.84375 1.87109375 C-9.30950986 -0.01513557 -4.8560384 -0.03451531 0 0 Z " fill="#564D55" transform="translate(225,136.5)"/>
<path d="M0 0 C7.59487004 6.19049319 12.87374254 14.34699104 14.328125 24.15234375 C15.76730771 41.17344692 9.68600988 57.33214465 -0.671875 70.65234375 C-1.98443893 72.17055115 -3.31695194 73.67181638 -4.671875 75.15234375 C-5.27386719 75.84585938 -5.87585938 76.539375 -6.49609375 77.25390625 C-23.16792394 95.35874491 -51.01517789 102.30962553 -73.671875 109.15234375 C-75.0954834 109.59465332 -75.0954834 109.59465332 -76.54785156 110.04589844 C-79.0008846 110.80774952 -81.45908625 111.54774588 -83.921875 112.27734375 C-84.60523926 112.4897168 -85.28860352 112.70208984 -85.99267578 112.92089844 C-90.98340693 114.33679756 -94.6675121 114.18389847 -99.671875 113.15234375 C-102.94983244 110.51572581 -105.06783995 108.02097927 -106.671875 104.15234375 C-106.41843108 96.07484077 -103.96748304 88.58221415 -101.609375 80.90234375 C-101.40901642 80.24304871 -101.20865784 79.58375366 -101.00222778 78.90447998 C-91.84948201 48.85173138 -81.52285332 17.90951988 -52.75 1.484375 C-36.84285782 -6.86069311 -15.73417738 -10.88050571 0 0 Z " fill="#574D55" transform="translate(443.671875,142.84765625)"/>
<path d="M0 0 C5.24283563 -0.1256672 10.48475356 -0.21528851 15.72875977 -0.2746582 C17.50430612 -0.29946304 19.27975424 -0.33331871 21.05493164 -0.37719727 C41.23842184 -0.8627893 59.36533114 3.27255505 74.9375 16.9375 C84.5233742 26.18604138 84.5233742 26.18604138 86 30 C84.81249721 33.89299645 83.11700249 36.25894884 80.25390625 39.109375 C79.50455811 39.85960937 78.75520996 40.60984375 77.9831543 41.3828125 C77.18433838 42.16398437 76.38552246 42.94515625 75.5625 43.75 C74.33623901 44.96042969 74.33623901 44.96042969 73.08520508 46.1953125 C67.30612241 51.84805455 61.42657062 57.09067988 55 62 C54.07058594 62.75796875 53.14117187 63.5159375 52.18359375 64.296875 C37.80267412 75.830997 21.75336508 85.34494759 5 93 C4.22253418 93.3604541 3.44506836 93.7209082 2.64404297 94.09228516 C-14.74049837 102.08787961 -36.53208634 112 -56 112 C-56 103.75 -56 95.5 -56 87 C-53.03 87 -50.06 87 -47 87 C-43.58195209 83.58195209 -43.5684873 83.02975622 -43.5625 78.4375 C-43.76796131 70.70468349 -45.84707312 64.45019031 -50.8125 58.5 C-52.81881798 55.78520099 -53.40268201 53.94996192 -53.3125 50.5625 C-52.11934057 42.84275852 -47.52322158 32.52322158 -42 27 C-39.28810134 26.95877678 -36.64276896 27.0114902 -33.9375 27.125 C-27.05261597 27.26522899 -21.92854362 26.79777741 -16 23 C-15.37996094 22.66097656 -14.75992188 22.32195312 -14.12109375 21.97265625 C-7.42167667 17.90670334 -4.06028967 10.97665266 -1.41503906 3.82543945 C-1.1488678 3.10814163 -0.88269653 2.39084381 -0.60845947 1.65180969 C-0.30727203 0.83416389 -0.30727203 0.83416389 0 0 Z " fill="#7AE601" transform="translate(358,396)"/>
<path d="M0 0 C7.28049701 5.47474973 12.26135934 11.97258109 14.47265625 20.859375 C15.7466878 32.61062506 12.85824662 44.26132191 10.66015625 55.734375 C10.29908422 57.6677737 9.93905186 59.60136686 9.58007812 61.53515625 C8.72110841 66.14499395 7.84158535 70.75056352 6.95248413 75.35467529 C6.50385777 77.69650316 6.06802034 80.04031809 5.63598633 82.38525391 C5.38393263 83.72043547 5.13159455 85.05556339 4.87890625 86.390625 C4.56469727 88.08155273 4.56469727 88.08155273 4.24414062 89.80664062 C2.50864241 96.67394115 -0.74479002 102.04792469 -6.71484375 105.921875 C-13.69774127 109.79208053 -22.37167134 110.32786373 -30.05078125 108.140625 C-36.38250772 105.13244844 -41.63497781 99.96067368 -44.578125 93.58203125 C-48.46668553 82.42842348 -43.86579419 70.99443425 -40.35302734 60.37060547 C-39.32243213 57.23615769 -38.34478558 54.08671106 -37.37231445 50.93383789 C-36.43439819 47.90572641 -35.4806524 44.88267085 -34.52734375 41.859375 C-38.85140131 43.2446304 -43.17469595 44.63223325 -47.49731445 46.02197266 C-48.96651037 46.4939658 -50.43590912 46.96532807 -51.90551758 47.43603516 C-54.0234922 48.11453295 -56.14071585 48.79533085 -58.2578125 49.4765625 C-58.91009323 49.68497772 -59.56237396 49.89339294 -60.23442078 50.10812378 C-62.97516657 50.99210613 -65.670281 51.91673577 -68.34350586 52.98950195 C-73.27056855 54.95206477 -78.23220499 54.23255058 -83.21484375 52.796875 C-87.59179866 50.2367693 -91.54369003 46.86431715 -93.16796875 41.90234375 C-94.34811859 35.19344846 -93.92454707 30.47854487 -90.20703125 24.68359375 C-85.85054829 19.95225063 -80.05710742 17.61430141 -74.2265625 15.21484375 C-73.43192093 14.88196854 -72.63727936 14.54909332 -71.81855774 14.20613098 C-69.28641377 13.14711509 -66.7507277 12.0968989 -64.21484375 11.046875 C-62.55510044 10.35408579 -60.89559318 9.66073077 -59.23632812 8.96679688 C-55.14376308 7.25705425 -51.04635494 5.55926078 -46.94769287 3.86419678 C-44.52280006 2.85748866 -42.10211704 1.84118886 -39.68212891 0.82275391 C-38.1578989 0.18517043 -36.63364853 -0.45236434 -35.109375 -1.08984375 C-34.41647873 -1.38373489 -33.72358246 -1.67762604 -33.00968933 -1.98042297 C-21.94928803 -6.58535649 -10.35519262 -6.40527378 0 0 Z " fill="#7AE600" transform="translate(165.52734375,324.140625)"/>
<path d="M0 0 C0.33 0 0.66 0 1 0 C1.6443286 26.88337167 -0.23185922 51.33768899 -9 77 C-9.23976563 77.71091797 -9.47953125 78.42183594 -9.7265625 79.15429688 C-13.27990718 89.55075866 -17.8232163 99.31822895 -23 109 C-23.32226562 109.60585938 -23.64453125 110.21171875 -23.9765625 110.8359375 C-31.44923441 124.74847301 -40.7188058 137.05631482 -51 149 C-51.55985596 148.86287598 -52.11971191 148.72575195 -52.6965332 148.58447266 C-62.44906127 146.49176805 -72.25896634 146.54768579 -82.1875 146.375 C-84.01629304 146.33674141 -85.84506957 146.29768535 -87.67382812 146.2578125 C-92.1157909 146.16120434 -96.55761557 146.08096432 -101 146 C-101 137.75 -101 129.5 -101 121 C-98.6075 119.845 -96.215 118.69 -93.75 117.5 C-70.64745282 106.0460719 -52.2903755 88.52189266 -37 68 C-36.58008789 67.44618652 -36.16017578 66.89237305 -35.72753906 66.32177734 C-20.43514679 46.10501987 -9.54811183 23.3624013 0 0 Z " fill="#FC3580" transform="translate(459,250)"/>
<path d="M0 0 C-0.495 1.134375 -0.99 2.26875 -1.5 3.4375 C-6.10755459 17.57028764 -2.66090161 32.28496935 3.57421875 45.28125 C18.86084842 72.93258945 45.38772752 82.78691498 74 92 C74.72348633 92.23477051 75.44697266 92.46954102 76.19238281 92.71142578 C81.42734889 94.40066818 86.58765941 95.99373451 92 97 C93.32237562 101.79090182 94.44374093 107.26844215 92.0234375 111.84765625 C89.7159463 114.72848115 87.39592767 116.63288646 84 118 C75.78686971 117.7401969 68.08465876 115.25808801 60.25 112.9375 C59.22404724 112.63596512 59.22404724 112.63596512 58.17736816 112.32833862 C26.73983714 103.05713459 -3.60674357 92.18489602 -20.49609375 62.12890625 C-26.39758766 49.8507332 -29.40153732 35.15986225 -25.9375 21.75 C-22.58427603 12.26739455 -16.74470777 5.78453512 -8 1 C-7.33355469 0.5978125 -6.66710937 0.195625 -5.98046875 -0.21875 C-3.56954114 -1.16980626 -2.39988142 -0.85710051 0 0 Z " fill="#433E41" transform="translate(216,139)"/>
<path d="M0 0 C6.71054394 0.419409 11.89658348 5.58435901 16.25 10.3125 C23.13572413 18.77424818 24.68675357 28.38173322 24 39 C22.17711026 54.23935824 15.3059493 67.73866684 5 79 C4.39800781 79.69351563 3.79601562 80.38703125 3.17578125 81.1015625 C-13.49604894 99.20640116 -41.34330289 106.15728178 -64 113 C-65.4236084 113.44230957 -65.4236084 113.44230957 -66.87597656 113.89355469 C-69.3290096 114.65540577 -71.78721125 115.39540213 -74.25 116.125 C-74.93336426 116.33737305 -75.61672852 116.54974609 -76.32080078 116.76855469 C-81.31153193 118.18445381 -84.9956371 118.03155472 -90 117 C-93.26352791 114.37498842 -95.44696087 111.87901941 -97 108 C-97.01171875 105.74609375 -97.01171875 105.74609375 -96.6875 103.4375 C-96.58824219 102.67308594 -96.48898437 101.90867187 -96.38671875 101.12109375 C-96 99 -96 99 -95 96 C-92.79150391 95.21557617 -92.79150391 95.21557617 -89.8515625 94.60546875 C-82.54032765 92.94028801 -75.48035802 90.6931136 -68.375 88.3125 C-67.71969299 88.09346008 -67.06438599 87.87442017 -66.38922119 87.64874268 C-38.04685171 78.1305704 -16.01384816 66.60792667 -2 39 C1.14931599 31.53937903 2.19515747 24.21128883 2.1875 16.125 C2.1884668 15.06925781 2.1884668 15.06925781 2.18945312 13.9921875 C2.13854357 8.9937953 1.57510871 4.72532614 0 0 Z " fill="#433E40" transform="translate(434,139)"/>
<path d="M0 0 C5.12993759 4.93972802 9.13267235 10.84808161 13.0625 16.75 C14.19953054 18.43426271 15.33758544 20.11783425 16.4765625 21.80078125 C17.05696289 22.66010254 17.63736328 23.51942383 18.23535156 24.40478516 C21.09536314 28.61091729 24.01489842 32.7747209 26.9375 36.9375 C27.50887695 37.75307373 28.08025391 38.56864746 28.66894531 39.40893555 C31.75647228 43.81345604 34.85466165 48.2102454 37.9609375 52.6015625 C38.60554932 53.51558838 39.25016113 54.42961426 39.91430664 55.37133789 C41.15515429 57.13054864 42.39900965 58.88764278 43.64624023 60.64233398 C44.20255127 61.43196533 44.7588623 62.22159668 45.33203125 63.03515625 C45.82421143 63.7300415 46.3163916 64.42492676 46.82348633 65.14086914 C49.88770214 69.98295327 49.52917704 75.48143948 49 81 C47.242092 87.20562702 43.29195241 91.45156787 38 95 C34.08901368 96.30366211 30.99424414 97.13734409 27 96 C19.53816248 90.33764098 13.75569686 82.32092939 8 75 C7.22011719 74.03707031 6.44023438 73.07414062 5.63671875 72.08203125 C-7.94641514 54.98937951 -27.39743542 29.54880892 -30.34375 7.41796875 C-29.77379663 3.40886494 -27.1017214 1.94830007 -24.08203125 -0.484375 C-16.25658843 -6.180945 -7.85898142 -4.8792609 0 0 Z " fill="#7AE600" transform="translate(52,344)"/>
<path d="M0 0 C3.71587307 0.46723671 6.49782202 1.6221509 9.74609375 3.44140625 C10.65576904 3.93922607 11.56544434 4.4370459 12.50268555 4.94995117 C13.47117432 5.48209229 14.43966309 6.0142334 15.4375 6.5625 C27.68986795 13.14344043 40.47444361 18.6186109 54 22 C54 37.84 54 53.68 54 70 C38.87751466 68.10968933 24.5447716 62.87362547 10.5 57.0625 C9.57123047 56.68037354 8.64246094 56.29824707 7.68554688 55.90454102 C-0.47671716 52.43357122 -8.22418953 48.2488496 -16 44 C-15.95582332 39.23044243 -15.88596836 34.46220577 -15.79248047 29.69335938 C-15.76428653 28.07172163 -15.74306406 26.44994687 -15.72900391 24.828125 C-15.70755128 22.49407895 -15.66089425 20.16167739 -15.609375 17.828125 C-15.60814636 17.10506165 -15.60691772 16.38199829 -15.60565186 15.63702393 C-15.50633728 12.21011309 -15.26236232 10.33489799 -13.12084961 7.60131836 C-10.77880245 5.83298783 -8.46953825 4.55663755 -5.8125 3.3125 C-2.68557527 1.98038041 -2.68557527 1.98038041 0 0 Z " fill="#E31E7E" transform="translate(147,436)"/>
<path d="M0 0 C4.10710947 0.89544872 8.20474661 1.79312024 12.2734375 2.8515625 C29.21722428 7.0768393 44.49993771 5.11843707 61.14672852 0.45898438 C63 0 63 0 65 0 C65.08802152 3.9790243 65.14073233 7.95779388 65.1875 11.9375 C65.21263672 13.05447266 65.23777344 14.17144531 65.26367188 15.32226562 C65.35797424 26.04130151 63.16820989 34.78424378 56 43 C46.56318381 51.05581869 38.25877143 52.86873183 26 52 C16.63027771 50.34324376 9.93877708 44.75276507 4.32421875 37.3203125 C-0.32193594 29.17926269 -0.37752726 22.22850355 -0.1875 13 C-0.17396484 11.74832031 -0.16042969 10.49664062 -0.14648438 9.20703125 C-0.11133786 6.13756884 -0.06213226 3.06901491 0 0 Z " fill="#0CACB9" transform="translate(293,372)"/>
<path d="M0 0 C5.7375205 4.25479048 9.63293041 9.48598102 11.0859375 16.546875 C12.15999397 26.25316311 10.2208208 32.7523476 4.9609375 40.796875 C-1.05455431 46.55082369 -6.47492785 48.71961767 -14.7890625 48.609375 C-20.51954536 48.75326267 -23.06728904 50.01961565 -26.97314453 53.94702148 C-28.00612925 55.08485077 -29.01834701 56.24193189 -30.00732422 57.41821289 C-33.45983116 61.50260294 -33.45983116 61.50260294 -35.91796875 61.7421875 C-38.79538707 60.01911508 -40.95732725 57.7271553 -43.2265625 55.296875 C-47.18586958 51.18357643 -51.10825442 47.64395132 -55.9140625 44.546875 C-54.57278287 40.96446992 -52.28567163 38.94439011 -49.47070312 36.43725586 C-44.21609403 31.93654108 -44.21609403 31.93654108 -41.265625 25.92578125 C-41.36468273 24.29654228 -41.51867109 22.66973561 -41.7265625 21.05078125 C-42.1617576 15.23911341 -39.57306927 9.72769518 -36.11328125 5.1796875 C-26.55297677 -4.95609161 -12.34082647 -7.29789738 0 0 Z " fill="#0ED28F" transform="translate(471.9140625,3.453125)"/>
<path d="M0 0 C4.96444557 4.08187747 10.1700466 8.65930184 11.0859375 15.29296875 C11.42041477 22.56141705 9.01591188 26.62346452 4.34375 32.00390625 C-2.31055916 38.51142918 -11.18535924 40.51432103 -20.25 40.8125 C-30.51910932 40.45059306 -37.98074513 37.49522432 -45.37109375 30.31640625 C-49.54252814 25.71437219 -50.78268134 21.64043048 -50.52734375 15.54296875 C-49.54438356 9.09158638 -45.29924855 4.85457129 -40.43359375 0.890625 C-28.38407156 -7.57547407 -12.69630755 -6.72157458 0 0 Z " fill="#0CACB8" transform="translate(382.1875,67.6875)"/>
<path d="M0 0 C0.88739868 -0.00133942 1.77479736 -0.00267883 2.68908691 -0.00405884 C20.97031326 0.00191919 39.27554565 0.80806346 56.875 6.25 C56.875 6.58 56.875 6.91 56.875 7.25 C55.66328125 7.39695312 54.4515625 7.54390625 53.203125 7.6953125 C28.01891488 10.96618702 3.71405993 19.04627648 -16.69921875 34.5703125 C-19.05793284 36.20356058 -20.31355683 36.94279808 -23.125 37.25 C-29.04764372 33.85254533 -36.42523198 26.6552589 -38.89990234 20.24169922 C-39.71733456 16.22155745 -39.40822877 12.30961231 -39.125 8.25 C-39.54180567 5.4704293 -39.54180567 5.4704293 -40.125 3.25 C-38.5010663 2.93200538 -36.87576598 2.62099022 -35.25 2.3125 C-34.34507812 2.13847656 -33.44015625 1.96445313 -32.5078125 1.78515625 C-21.69072756 0.0739084 -10.92775987 0.00971143 0 0 Z " fill="#E21F7F" transform="translate(255.125,10.75)"/>
<path d="M0 0 C2.5 1.625 2.5 1.625 4 4 C4.5625 6.9375 4.5625 6.9375 4 10 C0.49707081 14.18561773 -2.6371602 15.9587834 -7.76953125 17.68359375 C-8.40936447 17.90644547 -9.04919769 18.12929718 -9.7084198 18.35890198 C-11.73866885 19.0656138 -13.77440216 19.75378069 -15.8125 20.4375 C-29.90895089 24.87027454 -29.90895089 24.87027454 -40.8046875 34.421875 C-43.17623661 39.58042708 -44.71247146 44.32051173 -45.4453125 49.96875 C-46 52 -46 52 -49 54 C-52.73209414 54.40713754 -55.10268041 54.48317209 -58.4375 52.6875 C-61.00949153 48.26367457 -60.64907464 43.98065438 -60 39 C-57.09483813 28.0321979 -50.68751545 18.90109717 -41 13 C-37.11172409 11.04581482 -33.15340006 9.37295605 -29.09375 7.80761719 C-27.60595166 7.23373229 -26.12193204 6.65000851 -24.640625 6.05957031 C-22.14166126 5.06450338 -19.63507776 4.09165633 -17.125 3.125 C-15.9486499 2.65900391 -15.9486499 2.65900391 -14.74853516 2.18359375 C-9.60012368 0.25389447 -5.50320925 -0.45560338 0 0 Z " fill="#0EADB6" transform="translate(395,430)"/>
<path d="M0 0 C2.21670681 0.80679087 4.38562534 1.68563081 6.55688477 2.60766602 C8.14256516 3.25673198 9.72850456 3.90516554 11.31469727 4.55297852 C12.08716797 4.87298828 12.85963867 5.19299805 13.65551758 5.52270508 C16.71630967 6.76349375 19.82470427 7.86408104 22.93188477 8.98266602 C35.11130751 13.69183829 42.28297796 20.50221785 47.88891602 32.18579102 C49.58279093 36.04593624 50.08338342 39.16358255 50.18188477 43.35766602 C50.23795898 44.91807617 50.23795898 44.91807617 50.29516602 46.51000977 C49.76589253 50.12752123 48.76008629 51.24828903 45.86938477 53.42016602 C42.11131763 53.95703275 39.88380583 53.99591851 36.55688477 52.10766602 C34.33646544 48.57144265 34.04757321 45.26128259 33.41625977 41.17407227 C32.27354052 35.41966466 29.39728382 31.41652918 24.82299805 27.70922852 C20.78341034 25.043767 16.1983311 23.53053205 11.68188477 21.85766602 C10.70413086 21.48448242 9.72637695 21.11129883 8.71899414 20.72680664 C4.75895868 19.22183613 0.80486578 17.73159812 -3.21508789 16.39331055 C-4.19396973 16.06314941 -5.17285156 15.73298828 -6.18139648 15.39282227 C-7.50071167 14.9656189 -7.50071167 14.9656189 -8.84667969 14.52978516 C-11.55577647 13.21360719 -12.65831231 12.03323781 -14.13061523 9.42016602 C-14.01142723 6.02330784 -13.71190218 3.48015987 -12.06811523 0.48266602 C-8.38725414 -1.53587072 -3.95217615 -1.07556071 0 0 Z " fill="#0CACB8" transform="translate(265.130615234375,430.579833984375)"/>
<path d="M0 0 C4.40074385 3.37426762 8.36068828 7.29455813 10.51171875 12.45703125 C10.62511857 17.44662345 8.27100234 21.38188578 4.921875 24.984375 C-0.29798288 29.65597647 -4.88852577 31.76284733 -11.953125 31.5859375 C-17.89162685 30.67593011 -23.44833348 27.7226043 -27.42578125 23.20703125 C-31.41300731 17.22619216 -32.15337629 12.33042141 -31.42578125 5.20703125 C-30.10706397 1.56116582 -28.90204923 0.52093515 -25.67578125 -1.60546875 C-17.86546489 -4.50311277 -7.17643361 -4.40548961 0 0 Z " fill="#79E601" transform="translate(205.42578125,2.79296875)"/>
<path d="M0 0 C5.72392423 3.38102014 9.19627399 7.35956906 12.0625 13.3125 C12.58716761 18.38428686 11.16714492 21.69580687 8.4375 25.9375 C4.74675994 30.09083963 0.32319686 32.52772242 -5.17578125 33.30859375 C-11.9983735 33.47644334 -16.35046917 32.43487885 -21.5625 27.9375 C-26.82290848 22.40022792 -28.0179035 17.19562989 -27.88671875 9.73828125 C-27.41633112 5.67481224 -26.13202381 2.15155319 -23.5625 -1.0625 C-16.30204452 -3.48265183 -6.95022975 -3.23143304 0 0 Z " fill="#7AE601" transform="translate(469.5625,2.0625)"/>
<path d="M0 0 C4.45651282 3.66424387 8.96018575 7.75555726 10.8125 13.3125 C10.87990865 14.87368428 10.89764456 16.4375252 10.875 18 C10.86597656 18.80824219 10.85695313 19.61648437 10.84765625 20.44921875 C10.83605469 21.06410156 10.82445312 21.67898437 10.8125 22.3125 C10.4825 22.3125 10.1525 22.3125 9.8125 22.3125 C9.58463542 20.26171875 9.35677083 18.2109375 9.12890625 16.16015625 C8.99363386 14.30109771 8.99363386 14.30109771 7.8125 13.3125 C2.98035442 12.62219349 0.66409843 14.58428444 -3.1875 17.3125 C-11.12854123 21.18121239 -21.76215286 21.70326158 -30.265625 19.5234375 C-33.94138996 18.23593694 -37.20909357 17.05209685 -40.33203125 14.69140625 C-42.73787977 12.90348093 -44.25866202 12.99586887 -47.1875 13.3125 C-48.68493119 14.80993119 -48.51952693 16.30074239 -48.75 18.375 C-48.894375 19.674375 -49.03875 20.97375 -49.1875 22.3125 C-49.5175 22.3125 -49.8475 22.3125 -50.1875 22.3125 C-50.69814608 16.05708552 -50.29693062 11.33900694 -46.1875 6.3125 C-33.97058434 -7.0022491 -15.66228238 -8.29179655 0 0 Z " fill="#0FD18F" transform="translate(382.1875,67.6875)"/>
<path d="M0 0 C4.1945081 2.5203053 7.24349975 5.98699951 9.4375 10.375 C9.93518312 14.60530656 9.72747769 17.49689715 7.4375 21.0625 C3.23389822 26.20409557 -0.75251778 28.06824602 -7.35546875 28.7890625 C-14.17942328 29.14024239 -20.48377118 29.20484258 -26.08203125 24.79296875 C-29.43449138 21.58203728 -31.25804387 19.49133913 -32.5 14.9375 C-32.57552237 10.632725 -32.03719604 8.89956708 -29.5625 5.375 C-21.40140957 -1.88684346 -10.46114668 -4.82976312 0 0 Z " fill="#0DADB6" transform="translate(307.5625,106.625)"/>
<path d="M0 0 C2.6875 1.875 2.6875 1.875 5 4 C9.28072524 6.52749682 13.13682469 6.66968316 18 6 C22.02614074 4.52328402 25.44382454 2.37078364 29 0 C32.91054241 -0.42660463 35.12030578 -0.58646281 38.4375 1.625 C40.51114192 4.77693571 40.66859841 6.28556438 40 10 C36.12344459 16.33170718 30.05742828 19.33857211 23.109375 21.62109375 C13.4803364 23.35075439 3.6597808 22.77608075 -4.546875 17.30078125 C-10.48521224 12.60728179 -10.48521224 12.60728179 -11.703125 8.8046875 C-11.86705394 5.63149151 -11.39676521 3.50785947 -9.4375 1 C-6.03878205 -0.39434583 -3.64405552 -0.44751559 0 0 Z " fill="#0EADB6" transform="translate(337,289)"/>
<path d="M0 0 C3.60802339 1.72471448 5.23757152 2.80166978 7.5078125 6.20703125 C7.94219073 10.69560626 8.13823121 13.07227757 5.9453125 17.01953125 C1.0538247 21.40932799 -3.92671385 22.73647924 -10.3515625 22.49609375 C-15.57151396 21.79120979 -19.11324927 19.08655292 -22.4921875 15.20703125 C-23.94366653 12.3040732 -23.86457775 10.43441346 -23.4921875 7.20703125 C-17.66565441 -1.2090721 -9.80717297 -3.12046413 0 0 Z " fill="#0CACB9" transform="translate(272.4921875,49.79296875)"/>
<path d="M0 0 C0.29390625 0.85271484 0.29390625 0.85271484 0.59375 1.72265625 C3.3338144 8.79721908 7.31092516 13.51858752 14.07421875 17.09765625 C15.68759157 17.80125697 17.34086205 18.41238864 19 19 C15.87172451 22.73867071 12.69826079 26.43269846 9.375 30 C8.55128906 30.8971875 8.55128906 30.8971875 7.7109375 31.8125 C6 33 6 33 4.12109375 33.015625 C1.04389751 31.5421977 -1.01809473 29.2072366 -3.3125 26.75 C-7.27180708 22.63670143 -11.19419192 19.09707632 -16 16 C-14.33536962 11.71357676 -11.20924163 8.91382783 -8 5.75 C-7.4534375 5.19570313 -6.906875 4.64140625 -6.34375 4.0703125 C-2.2533867 0 -2.2533867 0 0 0 Z " fill="#0CACB8" transform="translate(432,32)"/>
<path d="M0 0 C3.65005495 2.19788255 6.01470413 4.89223094 8.4375 8.375 C8.4375 9.035 8.4375 9.695 8.4375 10.375 C6.25074225 11.11879515 4.06152588 11.85302654 1.8671875 12.57421875 C-0.09401717 13.22059649 -2.04820444 13.88824335 -4 14.5625 C-11.40592009 16.25156949 -17.10253315 16.14668825 -23.734375 12.33203125 C-26.26059161 11.00954606 -28.74803132 10.65644687 -31.5625 10.375 C-30.25364898 4.81238316 -26.17364029 2.2603868 -21.5625 -0.625 C-15.01470629 -2.8075979 -6.33923298 -2.926734 0 0 Z " fill="#0FD18E" transform="translate(307.5625,106.625)"/>
<path d="M0 0 C2.86698759 3.40939065 4.5083429 7.17027016 6.1875 11.25 C6.59645508 12.22453125 6.59645508 12.22453125 7.01367188 13.21875 C7.68076842 14.81041896 8.34107445 16.40493103 9 18 C6 19 6 19 3.87109375 18.08984375 C-6.27339955 14.23907691 -19.29692338 16.51949621 -29.03125 20.48828125 C-32.52161173 22.26561018 -35.51189951 24.27765877 -38.44921875 26.86328125 C-40 28 -40 28 -43 28 C-30.94089034 14.12644097 -18.57480608 3.26589997 0 0 Z " fill="#10D28C" transform="translate(459,97)"/>
<path d="M0 0 C0.33 0.66 0.66 1.32 1 2 C2.94937638 2.47054237 2.94937638 2.47054237 5.3125 2.75 C18.83185668 5.25715602 31.31729467 14.5117168 40 25 C40.495 26.485 40.495 26.485 41 28 C36.15879294 26.15234666 31.63502895 23.81162784 27.03515625 21.4375 C20.65991648 18.41808142 15.52107207 17.68471238 8.5625 17.75 C7.33176758 17.73839844 7.33176758 17.73839844 6.07617188 17.7265625 C1.00476702 17.74275214 -3.19501191 18.3703136 -8 20 C-6.12849037 12.84870304 -3.50213658 6.50594543 0 0 Z " fill="#0EACB7" transform="translate(192,96)"/>
<path d="M0 0 C2.38696582 2.96312998 4.72548277 5.94993105 7 9 C4.66666667 13.66666667 2.33333333 18.33333333 0 23 C1.65 24.98 3.3 26.96 5 29 C2.69 31.64 0.38 34.28 -2 37 C-7.66129431 32.30233025 -12.85228904 27.25276628 -18 22 C-17 20 -17 20 -13.375 18.375 C-7.82320469 15.67898429 -3.35945069 11.55269781 -1.12109375 5.703125 C-0.47740305 3.3013094 -0.47740305 3.3013094 0 0 Z " fill="#0DACB8" transform="translate(216,30)"/>
<path d="M0 0 C0.42667969 0.3403125 0.85335937 0.680625 1.29296875 1.03125 C13.50689034 10.50018715 27.53240794 18.4911861 42 24 C42 24.33 42 24.66 42 25 C35.00795906 25.46953852 28.581907 23.73765651 21.8125 22.125 C20.0500293 21.72087891 20.0500293 21.72087891 18.25195312 21.30859375 C7.98471499 18.9045003 7.98471499 18.9045003 5 17 C3.515625 13.84765625 3.515625 13.84765625 2.25 10.0625 C1.60804688 8.19271484 1.60804688 8.19271484 0.953125 6.28515625 C0 3 0 3 0 0 Z " fill="#0CADB7" transform="translate(184,227)"/>
<path d="M0 0 C1.81667619 3.63335237 -0.11631197 7.75070125 -1.27734375 11.45800781 C-2.63042647 15.04367702 -3.46949714 16.66077704 -6.7734375 18.7734375 C-10.17621168 19.80333283 -13.48935514 20.44589159 -17 21 C-19.21050262 21.55391383 -21.41891774 22.11623526 -23.625 22.6875 C-29.39391817 23.98041223 -35.10275507 24.65727434 -41 25 C-38.46812889 22.46812889 -35.59735067 21.36729825 -32.375 19.9375 C-20.85854795 14.67476395 -8.95524563 9.16145195 0 0 Z " fill="#13D28A" transform="translate(466,227)"/>
<path d="M0 0 C4.66666667 2.33333333 9.33333333 4.66666667 14 7 C13.09515208 8.15518918 12.1755794 9.29885406 11.25 10.4375 C10.73953125 11.07558594 10.2290625 11.71367188 9.703125 12.37109375 C7.70164907 14.2853494 6.78896736 15 4 15 C1.640625 13.12890625 1.640625 13.12890625 -0.75 10.5625 C-1.54921875 9.71816406 -2.3484375 8.87382813 -3.171875 8.00390625 C-3.77515625 7.34261719 -4.3784375 6.68132813 -5 6 C-3.35 4.02 -1.7 2.04 0 0 Z " fill="#10D18D" transform="translate(431,50)"/>
<path d="M0 0 C0.66 0.33 1.32 0.66 2 1 C1.24203125 1.72316406 1.24203125 1.72316406 0.46875 2.4609375 C-0.1809375 3.09257813 -0.830625 3.72421875 -1.5 4.375 C-2.1496875 5.00148438 -2.799375 5.62796875 -3.46875 6.2734375 C-5.22117431 7.86475907 -5.22117431 7.86475907 -5 10 C-6.95927063 11.7143618 -8.95880212 13.38405168 -11 15 C-11.66 14.67 -12.32 14.34 -13 14 C-11.58474822 12.41540185 -10.1677358 10.83237609 -8.75 9.25 C-7.96109375 8.36828125 -7.1721875 7.4865625 -6.359375 6.578125 C-4.29407328 4.32133835 -2.18264936 2.14260074 0 0 Z " fill="#20D577" transform="translate(429,111)"/>
</svg>
