<svg width="21" height="20" viewBox="0 0 21 20" fill="none" xmlns="http://www.w3.org/2000/svg">
<path d="M12.2617 12.8015C12.2617 12.2492 12.7094 11.8015 13.2617 11.8015H18.1563C18.7085 11.8015 19.1563 12.2492 19.1563 12.8015V17.6961C19.1563 18.2483 18.7085 18.6961 18.1563 18.6961H13.2617C12.7094 18.6961 12.2617 18.2483 12.2617 17.6961V12.8015Z" stroke="#CAC1E6" stroke-width="2" stroke-linecap="round" stroke-linejoin="round"/>
<path d="M1 2C1 1.44772 1.44772 1 2 1H6.89454C7.44683 1 7.89454 1.44772 7.89454 2V6.89454C7.89454 7.44683 7.44683 7.89454 6.89454 7.89454H2C1.44772 7.89454 1 7.44683 1 6.89454V2Z" stroke="#CAC1E6" stroke-width="2" stroke-linecap="round" stroke-linejoin="round"/>
<path d="M12.2617 2C12.2617 1.44772 12.7094 1 13.2617 1H18.1563C18.7085 1 19.1563 1.44772 19.1563 2V6.89454C19.1563 7.44683 18.7085 7.89454 18.1563 7.89454H13.2617C12.7094 7.89454 12.2617 7.44683 12.2617 6.89454V2Z" stroke="#CAC1E6" stroke-width="2" stroke-linecap="round" stroke-linejoin="round"/>
<path d="M1 12.8015C1 12.2492 1.44772 11.8015 2 11.8015H6.89454C7.44683 11.8015 7.89454 12.2492 7.89454 12.8015V17.6961C7.89454 18.2483 7.44683 18.6961 6.89454 18.6961H2C1.44772 18.6961 1 18.2483 1 17.6961V12.8015Z" stroke="#CAC1E6" stroke-width="2" stroke-linecap="round" stroke-linejoin="round"/>
</svg>
